<?xml version="1.0" encoding="utf-8"?>
<!-- Generator: Adobe Illustrator 25.4.1, SVG Export Plug-In . SVG Version: 6.00 Build 0)  -->
<svg version="1.1" id="Lager_1" xmlns="http://www.w3.org/2000/svg" xmlns:xlink="http://www.w3.org/1999/xlink" x="0px" y="0px"
	 viewBox="0 0 283.5 184.3" style="enable-background:new 0 0 283.5 184.3;" xml:space="preserve">
<style type="text/css">
	.st0{fill:#6D6D6D;}
	.st1{fill:#966314;}
	.st2{fill:#9E9C98;}
	.st3{fill:none;stroke:#000000;stroke-miterlimit:10;}
</style>
<path class="st0" d="M148.5,89.8l-133.1-69c-3.9-2-5.4-6.9-3.3-10.8L15,4.5c0.6-1.2,2.1-1.7,3.3-1l138,71.5c3.9,2,5.4,6.9,3.3,10.8
	l-0.3,0.6C157.2,90.3,152.3,91.8,148.5,89.8z"/>
<path class="st1" d="M209.7,138.5c0,7.4-1.8,14.3-5.1,20.5l0,0l-13.4,23l-22.8-13.4c7.7-7.5,12.5-17.7,12.5-29
	c0-22-18.2-40.1-41.2-41.7l9.4-16.4c0.8-1.3,2.5-1.8,3.8-1l40.9,23.9C203.6,112.9,209.7,125,209.7,138.5z"/>
<polygon class="st1" points="144.1,90.1 134.5,108.4 59.6,69.6 34.5,50.3 34.5,38.6 36.7,34.4 "/>
<polygon class="st2" points="147.7,116.5 147.7,116.5 144.8,114.7 144.8,114.7 134.5,108.3 135.1,106.9 147.8,114.8 147.8,114.8 
	150.7,116.5 "/>
<polygon class="st2" points="161.6,115.3 157.7,116.9 157.7,116.9 153.6,116.7 153.6,116.7 150.8,116.7 147.9,116.6 147.9,116.6 
	145.1,114.8 148,114.9 148,114.9 157.5,115.2 "/>
<polygon class="st2" points="170.2,112 162.9,114.8 158.3,116.5 158.3,116.5 153.6,116.5 158.1,114.7 168.7,110.7 "/>
<path class="st2" d="M145.1,97.1L4.8,24.3c-1-0.5-1.3-1.7-0.8-2.6l5.2-9.9c0.5-0.9,1.7-1.3,2.6-0.8l140.3,72.8
	c3.7,1.9,5.1,6.4,3.2,10.1l0,0.1C153.4,97.6,148.8,99,145.1,97.1z"/>
<polygon class="st2" points="163.1,106.3 159.6,107.8 157.4,108.7 157.3,108.7 155.1,108.6 157.3,107.7 162.2,105.7 163.1,106.2 "/>
<path class="st3" d="M35.6,23.3l-0.3,0.3c-3.2,3.5-5.5,7.7-6.7,12.2l-0.2,0.8"/>
<path class="st3" d="M39.1,25.2l-0.3,0.3c-3.2,3.5-5.5,7.7-6.7,12.2L32,38.4"/>
<path class="st3" d="M42.5,26.9l-0.3,0.3c-3.2,3.5-5.5,7.7-6.7,12.2l-0.2,0.8"/>
<path class="st3" d="M41.2,15.6L41,15.8c-2.2,2.1-3.8,4.7-4.6,7.6l-0.1,0.3"/>
<path class="st3" d="M44.6,17.3l-0.2,0.2c-2.2,2.1-3.8,4.7-4.6,7.6l-0.1,0.3"/>
<path class="st3" d="M47.8,18.8l-0.2,0.2c-2.2,2.1-3.8,4.7-4.6,7.6l-0.1,0.3"/>
</svg>
